<svg width="3000" height="3200" viewBox="0 0 3000 3200" fill="none" xmlns="http://www.w3.org/2000/svg">
<path d="M70 15H2930C2960.38 15 2985 39.6243 2985 70V3130C2985 3160.38 2960.38 3185 2930 3185H69.9999C39.6243 3185 15 3160.38 15 3130V70.0001C15 39.6244 39.6244 15 70 15Z" fill="#00BF63" stroke="#C0C0C0" stroke-width="30"/>
<path d="M500 2013C500 1461.27 948.268 1013 1500 1013V1013C2051.73 1013 2500 1461.27 2500 2013V2013C2500 2564.73 2051.73 3013 1500 3013V3013C948.268 3013 500 2564.73 500 2013V2013Z" fill="#D9D9D9"/>
<path d="M699.5 1914C699.5 1416.94 1102.44 1014 1599.5 1014V1014C2096.56 1014 2499.5 1416.94 2499.5 1914V2114C2499.5 2611.06 2096.56 3014 1599.5 3014V3014C1102.44 3014 699.5 2611.06 699.5 2114V1914Z" fill="#06327D"/>
<path d="M0 693H1500H3000V733H1500H0V693Z" fill="#D9D9D9"/>
<rect x="186" y="287" width="250" height="250" rx="125" fill="#D9D9D9" stroke="black" stroke-width="50"/>
<rect x="547" y="287" width="250" height="250" rx="125" fill="#D9D9D9" stroke="black" stroke-width="50"/>
<path d="M1532 248C1532 231.431 1545.43 218 1562 218H2810C2826.57 218 2840 231.431 2840 248V577C2840 593.569 2826.57 607 2810 607H1562C1545.43 607 1532 593.569 1532 577V248Z" fill="white"/>
<path d="M1764.12 520C1759.05 520 1757.73 516.777 1760.17 510.332L1833.12 318.877C1835.37 312.92 1838.59 309.941 1842.79 309.941H1863.29C1867.49 309.941 1870.72 312.92 1872.96 318.877L1945.91 510.332C1948.35 516.777 1947.04 520 1941.96 520H1927.02C1921.84 520 1918.32 517.607 1916.47 512.822L1898.16 464.336H1807.92L1789.61 512.822C1787.76 517.607 1784.24 520 1779.07 520H1764.12ZM1817.15 440.312H1888.93L1866.52 381.719C1864.47 376.25 1862.42 370.195 1860.37 363.555C1858.41 356.914 1856.07 347.49 1853.33 335.283H1852.75C1850.01 347.49 1847.62 356.914 1845.57 363.555C1843.62 370.195 1841.62 376.25 1839.56 381.719L1817.15 440.312ZM1962.32 385.527C1957.92 385.527 1955.73 383.818 1955.73 380.4V371.318C1955.73 367.9 1957.92 366.191 1962.32 366.191H1979.6V353.008C1979.6 351.055 1980.09 349.199 1981.07 347.441L1991.32 328.838C1993.18 325.42 1994.69 323.711 1995.86 323.711H2000.99C2003.92 323.711 2005.38 325.42 2005.38 328.838V366.191H2036.59C2040.98 366.191 2043.18 367.9 2043.18 371.318V380.4C2043.18 383.818 2040.98 385.527 2036.59 385.527H2005.38V478.838C2005.38 489.092 2006.9 495.781 2009.93 498.906C2013.05 501.934 2016.76 503.447 2021.06 503.447C2024.38 503.447 2028.33 502.471 2032.92 500.518C2037.61 498.564 2040.83 496.904 2042.59 495.537C2044.35 494.17 2045.72 494.609 2046.69 496.855L2051.53 508.135C2052.31 510.088 2051.72 511.65 2049.77 512.822C2045.96 515.068 2040.39 517.266 2033.07 519.414C2025.75 521.465 2018.42 522.49 2011.1 522.49C2000.94 522.49 1993.13 518.828 1987.66 511.504C1982.29 504.18 1979.6 493.828 1979.6 480.449V385.527H1962.32ZM2072.47 443.096C2072.47 418.877 2078.53 399.59 2090.64 385.234C2102.75 370.879 2120.08 363.701 2142.64 363.701C2161.39 363.701 2176.92 370.293 2189.22 383.477C2201.62 396.562 2207.83 417.51 2207.83 446.318C2207.83 450.713 2205.82 452.91 2201.82 452.91H2099.72C2101.38 471.758 2106.46 484.893 2114.96 492.314C2123.45 499.639 2133.07 503.301 2143.81 503.301C2155.14 503.301 2163.83 501.396 2169.89 497.588C2175.94 493.779 2180.38 490.02 2183.22 486.309C2186.34 482.207 2189.37 481.426 2192.3 483.965L2200.94 491.436C2203.19 493.389 2203.19 496.074 2200.94 499.492C2199.09 502.324 2193.76 506.865 2184.97 513.115C2176.28 519.365 2162.56 522.49 2143.81 522.49C2119.4 522.49 2101.38 515.312 2089.76 500.957C2078.24 486.602 2072.47 467.314 2072.47 443.096ZM2099.13 433.867H2181.9C2181.51 420.195 2177.99 408.232 2171.35 397.979C2164.71 387.627 2154.95 382.451 2142.05 382.451C2130.73 382.451 2121.11 386.26 2113.2 393.877C2105.29 401.396 2100.6 414.727 2099.13 433.867ZM2248.26 520C2243.86 520 2241.66 517.803 2241.66 513.408V330.596C2241.66 328.643 2242.15 326.787 2243.13 325.029L2253.38 306.426C2255.24 303.008 2256.75 301.299 2257.92 301.299H2263.05C2265.98 301.299 2267.45 303.008 2267.45 306.426V513.408C2267.45 517.803 2265.25 520 2260.85 520H2248.26ZM2315.64 520C2311.24 520 2309.05 517.803 2309.05 513.408V372.783C2309.05 368.389 2311.24 366.191 2315.64 366.191H2328.24C2332.63 366.191 2334.83 368.389 2334.83 372.783V513.408C2334.83 517.803 2332.63 520 2328.24 520H2315.64ZM2315.64 338.359C2311.24 338.359 2309.05 336.162 2309.05 331.768V319.17C2309.05 314.775 2311.24 312.578 2315.64 312.578H2328.24C2332.63 312.578 2334.83 314.775 2334.83 319.17V331.768C2334.83 336.162 2332.63 338.359 2328.24 338.359H2315.64ZM2368.08 443.096C2368.08 418.877 2374.13 399.59 2386.24 385.234C2398.35 370.879 2415.69 363.701 2438.25 363.701C2457 363.701 2472.52 370.293 2484.83 383.477C2497.23 396.562 2503.43 417.51 2503.43 446.318C2503.43 450.713 2501.43 452.91 2497.43 452.91H2395.33C2396.99 471.758 2402.06 484.893 2410.56 492.314C2419.06 499.639 2428.68 503.301 2439.42 503.301C2450.75 503.301 2459.44 501.396 2465.49 497.588C2471.55 493.779 2475.99 490.02 2478.82 486.309C2481.95 482.207 2484.97 481.426 2487.9 483.965L2496.55 491.436C2498.79 493.389 2498.79 496.074 2496.55 499.492C2494.69 502.324 2489.37 506.865 2480.58 513.115C2471.89 519.365 2458.17 522.49 2439.42 522.49C2415 522.49 2396.99 515.312 2385.37 500.957C2373.84 486.602 2368.08 467.314 2368.08 443.096ZM2394.74 433.867H2477.5C2477.11 420.195 2473.6 408.232 2466.96 397.979C2460.32 387.627 2450.55 382.451 2437.66 382.451C2426.33 382.451 2416.71 386.26 2408.8 393.877C2400.89 401.396 2396.21 414.727 2394.74 433.867ZM2543.86 520C2539.47 520 2537.27 517.803 2537.27 513.408V372.783C2537.27 368.389 2539.47 366.191 2543.86 366.191H2556.17C2560.56 366.191 2562.76 368.389 2562.76 372.783V390.361H2563.34C2568.03 381.572 2573.55 374.932 2579.9 370.439C2586.24 365.947 2594.15 363.701 2603.63 363.701C2609.88 363.701 2614.27 364.238 2616.81 365.312C2619.06 366.191 2619.89 367.656 2619.3 369.707L2615.93 381.719C2615.44 383.477 2614.17 384.16 2612.12 383.77C2608.71 383.086 2605.48 382.744 2602.46 382.744C2591.03 382.744 2581.61 387.92 2574.18 398.271C2566.76 408.525 2563.05 422.539 2563.05 440.312V513.408C2563.05 517.803 2560.85 520 2556.46 520H2543.86Z" fill="black"/>
</svg>
